<mxfile host="app.diagrams.net" modified="2022-09-15T15:33:04.630Z" agent="5.0 (Windows NT 10.0; Win64; x64) AppleWebKit/537.36 (KHTML, like Gecko) Chrome/91.0.4472.164 Safari/537.36 Edg/91.0.864.71" etag="6zcT7uydPnzt-mmZDWJC" version="20.3.0" type="github">
  <diagram id="PmrCIkA7KPBPFYFiDcDI" name="Página-1">
    <mxGraphModel dx="882" dy="496" grid="1" gridSize="10" guides="1" tooltips="1" connect="1" arrows="1" fold="1" page="1" pageScale="1" pageWidth="827" pageHeight="1169" math="0" shadow="0">
      <root>
        <mxCell id="0" />
        <mxCell id="1" parent="0" />
        <mxCell id="CObCKITNYydoJICtjVox-1" value="CLIENTE" style="rounded=0;whiteSpace=wrap;html=1;" parent="1" vertex="1">
          <mxGeometry x="350" y="220" width="120" height="60" as="geometry" />
        </mxCell>
        <mxCell id="CObCKITNYydoJICtjVox-2" value="EFETUA" style="rhombus;whiteSpace=wrap;html=1;" parent="1" vertex="1">
          <mxGeometry x="570" y="210" width="80" height="80" as="geometry" />
        </mxCell>
        <mxCell id="CObCKITNYydoJICtjVox-3" value="POSSUI" style="rhombus;whiteSpace=wrap;html=1;" parent="1" vertex="1">
          <mxGeometry x="370" y="390" width="80" height="80" as="geometry" />
        </mxCell>
        <mxCell id="CObCKITNYydoJICtjVox-4" value="COMANDA" style="rounded=0;whiteSpace=wrap;html=1;" parent="1" vertex="1">
          <mxGeometry x="350" y="555" width="120" height="60" as="geometry" />
        </mxCell>
        <mxCell id="CObCKITNYydoJICtjVox-5" value="PAGAMENTO" style="rounded=0;whiteSpace=wrap;html=1;" parent="1" vertex="1">
          <mxGeometry x="550" y="400" width="120" height="60" as="geometry" />
        </mxCell>
        <mxCell id="CObCKITNYydoJICtjVox-6" value="POSSUI" style="rhombus;whiteSpace=wrap;html=1;" parent="1" vertex="1">
          <mxGeometry x="570" y="545" width="80" height="80" as="geometry" />
        </mxCell>
        <mxCell id="CObCKITNYydoJICtjVox-7" value="FUNCIONARIO" style="rounded=0;whiteSpace=wrap;html=1;" parent="1" vertex="1">
          <mxGeometry x="1050" y="220" width="120" height="60" as="geometry" />
        </mxCell>
        <mxCell id="CObCKITNYydoJICtjVox-8" value="" style="triangle;whiteSpace=wrap;html=1;rotation=-90;" parent="1" vertex="1">
          <mxGeometry x="1080" y="300" width="60" height="80" as="geometry" />
        </mxCell>
        <mxCell id="CObCKITNYydoJICtjVox-9" value="GARÇON" style="rounded=0;whiteSpace=wrap;html=1;" parent="1" vertex="1">
          <mxGeometry x="790" y="380" width="120" height="60" as="geometry" />
        </mxCell>
        <mxCell id="CObCKITNYydoJICtjVox-10" value="SERVIÇOS&lt;br&gt;GERAIS" style="rounded=0;whiteSpace=wrap;html=1;" parent="1" vertex="1">
          <mxGeometry x="1280" y="380" width="120" height="60" as="geometry" />
        </mxCell>
        <mxCell id="CObCKITNYydoJICtjVox-11" value="POSSUI" style="rhombus;whiteSpace=wrap;html=1;" parent="1" vertex="1">
          <mxGeometry x="1300" y="535" width="80" height="80" as="geometry" />
        </mxCell>
        <mxCell id="CObCKITNYydoJICtjVox-12" value="PAGAMENTO FUNC" style="rounded=0;whiteSpace=wrap;html=1;" parent="1" vertex="1">
          <mxGeometry x="1280" y="660" width="120" height="60" as="geometry" />
        </mxCell>
        <mxCell id="CObCKITNYydoJICtjVox-14" value="POSSUI" style="rhombus;whiteSpace=wrap;html=1;" parent="1" vertex="1">
          <mxGeometry x="1150" y="535" width="80" height="80" as="geometry" />
        </mxCell>
        <mxCell id="CObCKITNYydoJICtjVox-16" value="REGISTRO HORAS" style="rounded=0;whiteSpace=wrap;html=1;" parent="1" vertex="1">
          <mxGeometry x="980" y="545" width="120" height="60" as="geometry" />
        </mxCell>
        <mxCell id="CObCKITNYydoJICtjVox-17" value="PERTENCE" style="rhombus;whiteSpace=wrap;html=1;" parent="1" vertex="1">
          <mxGeometry x="880" y="475" width="80" height="80" as="geometry" />
        </mxCell>
        <mxCell id="CObCKITNYydoJICtjVox-18" value="POSSUI" style="rhombus;whiteSpace=wrap;html=1;" parent="1" vertex="1">
          <mxGeometry x="1000" y="685" width="80" height="80" as="geometry" />
        </mxCell>
        <mxCell id="CObCKITNYydoJICtjVox-19" value="EFETUA" style="rhombus;whiteSpace=wrap;html=1;" parent="1" vertex="1">
          <mxGeometry x="810" y="605" width="80" height="80" as="geometry" />
        </mxCell>
        <mxCell id="CObCKITNYydoJICtjVox-20" value="" style="rounded=0;whiteSpace=wrap;html=1;" parent="1" vertex="1">
          <mxGeometry x="555" y="650" width="130" height="80" as="geometry" />
        </mxCell>
        <mxCell id="CObCKITNYydoJICtjVox-21" value="REGISTRO" style="rhombus;whiteSpace=wrap;html=1;rounded=0;" parent="1" vertex="1">
          <mxGeometry x="580" y="650" width="80" height="80" as="geometry" />
        </mxCell>
        <mxCell id="CObCKITNYydoJICtjVox-23" value="PRODUTO" style="rounded=0;whiteSpace=wrap;html=1;" parent="1" vertex="1">
          <mxGeometry x="560" y="810" width="120" height="60" as="geometry" />
        </mxCell>
        <mxCell id="CObCKITNYydoJICtjVox-25" value="POSSUI" style="rhombus;whiteSpace=wrap;html=1;" parent="1" vertex="1">
          <mxGeometry x="770" y="800" width="80" height="80" as="geometry" />
        </mxCell>
        <mxCell id="CObCKITNYydoJICtjVox-26" value="MENU" style="rounded=0;whiteSpace=wrap;html=1;" parent="1" vertex="1">
          <mxGeometry x="900" y="810" width="120" height="60" as="geometry" />
        </mxCell>
        <mxCell id="CObCKITNYydoJICtjVox-27" value="DISPONIVEL" style="ellipse;whiteSpace=wrap;html=1;dashed=1;" parent="1" vertex="1">
          <mxGeometry x="460" y="910" width="120" height="80" as="geometry" />
        </mxCell>
        <mxCell id="CObCKITNYydoJICtjVox-28" value="QNTD" style="ellipse;whiteSpace=wrap;html=1;" parent="1" vertex="1">
          <mxGeometry x="650" y="910" width="120" height="80" as="geometry" />
        </mxCell>
        <mxCell id="CObCKITNYydoJICtjVox-29" value="DEPENDE" style="rhombus;whiteSpace=wrap;html=1;" parent="1" vertex="1">
          <mxGeometry x="580" y="980" width="80" height="80" as="geometry" />
        </mxCell>
        <mxCell id="CObCKITNYydoJICtjVox-30" value="INSUMOS" style="rounded=0;whiteSpace=wrap;html=1;" parent="1" vertex="1">
          <mxGeometry x="560" y="1090" width="120" height="60" as="geometry" />
        </mxCell>
        <mxCell id="CObCKITNYydoJICtjVox-31" value="" style="endArrow=none;html=1;rounded=0;exitX=0.5;exitY=0;exitDx=0;exitDy=0;entryX=0.5;entryY=1;entryDx=0;entryDy=0;" parent="1" source="CObCKITNYydoJICtjVox-3" target="CObCKITNYydoJICtjVox-1" edge="1">
          <mxGeometry width="50" height="50" relative="1" as="geometry">
            <mxPoint x="530" y="410" as="sourcePoint" />
            <mxPoint x="580" y="360" as="targetPoint" />
          </mxGeometry>
        </mxCell>
        <mxCell id="CObCKITNYydoJICtjVox-32" value="" style="endArrow=none;html=1;rounded=0;exitX=0;exitY=0.5;exitDx=0;exitDy=0;entryX=1;entryY=0.5;entryDx=0;entryDy=0;" parent="1" source="CObCKITNYydoJICtjVox-2" target="CObCKITNYydoJICtjVox-1" edge="1">
          <mxGeometry width="50" height="50" relative="1" as="geometry">
            <mxPoint x="420" y="400" as="sourcePoint" />
            <mxPoint x="420" y="290" as="targetPoint" />
          </mxGeometry>
        </mxCell>
        <mxCell id="CObCKITNYydoJICtjVox-33" value="" style="endArrow=none;html=1;rounded=0;exitX=0.5;exitY=1;exitDx=0;exitDy=0;entryX=0.5;entryY=0;entryDx=0;entryDy=0;" parent="1" source="CObCKITNYydoJICtjVox-2" target="CObCKITNYydoJICtjVox-5" edge="1">
          <mxGeometry width="50" height="50" relative="1" as="geometry">
            <mxPoint x="430" y="410" as="sourcePoint" />
            <mxPoint x="430" y="300" as="targetPoint" />
          </mxGeometry>
        </mxCell>
        <mxCell id="CObCKITNYydoJICtjVox-34" value="" style="endArrow=none;html=1;rounded=0;exitX=0.5;exitY=0;exitDx=0;exitDy=0;entryX=0.5;entryY=1;entryDx=0;entryDy=0;" parent="1" source="CObCKITNYydoJICtjVox-4" target="CObCKITNYydoJICtjVox-3" edge="1">
          <mxGeometry width="50" height="50" relative="1" as="geometry">
            <mxPoint x="440" y="420" as="sourcePoint" />
            <mxPoint x="440" y="310" as="targetPoint" />
          </mxGeometry>
        </mxCell>
        <mxCell id="CObCKITNYydoJICtjVox-35" value="" style="endArrow=none;html=1;rounded=0;exitX=0.5;exitY=0;exitDx=0;exitDy=0;entryX=0.5;entryY=1;entryDx=0;entryDy=0;" parent="1" source="CObCKITNYydoJICtjVox-6" target="CObCKITNYydoJICtjVox-5" edge="1">
          <mxGeometry width="50" height="50" relative="1" as="geometry">
            <mxPoint x="420" y="565" as="sourcePoint" />
            <mxPoint x="420" y="480" as="targetPoint" />
          </mxGeometry>
        </mxCell>
        <mxCell id="CObCKITNYydoJICtjVox-36" value="" style="endArrow=none;html=1;rounded=0;exitX=0;exitY=0.5;exitDx=0;exitDy=0;entryX=1;entryY=0.5;entryDx=0;entryDy=0;" parent="1" source="CObCKITNYydoJICtjVox-6" target="CObCKITNYydoJICtjVox-4" edge="1">
          <mxGeometry width="50" height="50" relative="1" as="geometry">
            <mxPoint x="620" y="555" as="sourcePoint" />
            <mxPoint x="620" y="470" as="targetPoint" />
          </mxGeometry>
        </mxCell>
        <mxCell id="CObCKITNYydoJICtjVox-37" value="VALOR" style="ellipse;whiteSpace=wrap;html=1;" parent="1" vertex="1">
          <mxGeometry x="720" y="290" width="77" height="60" as="geometry" />
        </mxCell>
        <mxCell id="CObCKITNYydoJICtjVox-38" value="" style="endArrow=none;html=1;rounded=0;entryX=1;entryY=1;entryDx=0;entryDy=0;exitX=0.5;exitY=0;exitDx=0;exitDy=0;" parent="1" source="CObCKITNYydoJICtjVox-9" target="CObCKITNYydoJICtjVox-37" edge="1">
          <mxGeometry width="50" height="50" relative="1" as="geometry">
            <mxPoint x="670" y="520" as="sourcePoint" />
            <mxPoint x="720" y="470" as="targetPoint" />
          </mxGeometry>
        </mxCell>
        <mxCell id="CObCKITNYydoJICtjVox-39" value="" style="endArrow=none;html=1;rounded=0;entryX=0.5;entryY=1;entryDx=0;entryDy=0;exitX=0.5;exitY=0;exitDx=0;exitDy=0;" parent="1" source="CObCKITNYydoJICtjVox-19" target="CObCKITNYydoJICtjVox-9" edge="1">
          <mxGeometry width="50" height="50" relative="1" as="geometry">
            <mxPoint x="860" y="390" as="sourcePoint" />
            <mxPoint x="795.797441259761" y="351.15551697631463" as="targetPoint" />
          </mxGeometry>
        </mxCell>
        <mxCell id="wETEtokrw9temY9SCEjw-1" value="" style="endArrow=none;html=1;rounded=0;entryX=0.5;entryY=1;entryDx=0;entryDy=0;" edge="1" parent="1" source="CObCKITNYydoJICtjVox-8" target="CObCKITNYydoJICtjVox-7">
          <mxGeometry width="50" height="50" relative="1" as="geometry">
            <mxPoint x="860" y="390" as="sourcePoint" />
            <mxPoint x="795.5451013187239" y="351.35139577794007" as="targetPoint" />
          </mxGeometry>
        </mxCell>
        <mxCell id="wETEtokrw9temY9SCEjw-2" value="" style="endArrow=none;html=1;rounded=0;entryX=1;entryY=1;entryDx=0;entryDy=0;exitX=0.5;exitY=0;exitDx=0;exitDy=0;" edge="1" parent="1" source="CObCKITNYydoJICtjVox-17" target="CObCKITNYydoJICtjVox-9">
          <mxGeometry width="50" height="50" relative="1" as="geometry">
            <mxPoint x="860" y="615" as="sourcePoint" />
            <mxPoint x="860" y="450" as="targetPoint" />
            <Array as="points">
              <mxPoint x="920" y="440" />
            </Array>
          </mxGeometry>
        </mxCell>
        <mxCell id="wETEtokrw9temY9SCEjw-3" value="" style="endArrow=none;html=1;rounded=0;entryX=0;entryY=0.5;entryDx=0;entryDy=0;exitX=0.5;exitY=1;exitDx=0;exitDy=0;" edge="1" parent="1" source="CObCKITNYydoJICtjVox-17" target="CObCKITNYydoJICtjVox-16">
          <mxGeometry width="50" height="50" relative="1" as="geometry">
            <mxPoint x="930" y="485" as="sourcePoint" />
            <mxPoint x="920" y="450" as="targetPoint" />
            <Array as="points">
              <mxPoint x="920" y="575" />
            </Array>
          </mxGeometry>
        </mxCell>
        <mxCell id="wETEtokrw9temY9SCEjw-4" value="" style="endArrow=none;html=1;rounded=0;entryX=0;entryY=0.5;entryDx=0;entryDy=0;exitX=1;exitY=0;exitDx=0;exitDy=0;" edge="1" parent="1" source="CObCKITNYydoJICtjVox-9" target="CObCKITNYydoJICtjVox-8">
          <mxGeometry width="50" height="50" relative="1" as="geometry">
            <mxPoint x="860" y="390" as="sourcePoint" />
            <mxPoint x="795.5451013187239" y="351.35139577794007" as="targetPoint" />
          </mxGeometry>
        </mxCell>
        <mxCell id="wETEtokrw9temY9SCEjw-5" value="" style="endArrow=none;html=1;rounded=0;entryX=0;entryY=0;entryDx=0;entryDy=0;exitX=0;exitY=0.75;exitDx=0;exitDy=0;" edge="1" parent="1" source="CObCKITNYydoJICtjVox-8" target="CObCKITNYydoJICtjVox-10">
          <mxGeometry width="50" height="50" relative="1" as="geometry">
            <mxPoint x="920" y="390" as="sourcePoint" />
            <mxPoint x="1120" y="380" as="targetPoint" />
          </mxGeometry>
        </mxCell>
        <mxCell id="wETEtokrw9temY9SCEjw-6" value="" style="endArrow=none;html=1;rounded=0;entryX=0.5;entryY=0;entryDx=0;entryDy=0;exitX=0.5;exitY=1;exitDx=0;exitDy=0;" edge="1" parent="1" source="CObCKITNYydoJICtjVox-10" target="CObCKITNYydoJICtjVox-11">
          <mxGeometry width="50" height="50" relative="1" as="geometry">
            <mxPoint x="1140" y="380" as="sourcePoint" />
            <mxPoint x="1290" y="390" as="targetPoint" />
          </mxGeometry>
        </mxCell>
        <mxCell id="wETEtokrw9temY9SCEjw-7" value="" style="endArrow=none;html=1;rounded=0;entryX=0.5;entryY=0;entryDx=0;entryDy=0;exitX=0.5;exitY=1;exitDx=0;exitDy=0;" edge="1" parent="1" source="CObCKITNYydoJICtjVox-11" target="CObCKITNYydoJICtjVox-12">
          <mxGeometry width="50" height="50" relative="1" as="geometry">
            <mxPoint x="1350" y="450" as="sourcePoint" />
            <mxPoint x="1350" y="545" as="targetPoint" />
          </mxGeometry>
        </mxCell>
        <mxCell id="wETEtokrw9temY9SCEjw-8" value="" style="endArrow=none;html=1;rounded=0;entryX=0.5;entryY=0;entryDx=0;entryDy=0;exitX=1;exitY=0.5;exitDx=0;exitDy=0;" edge="1" parent="1" source="CObCKITNYydoJICtjVox-14" target="CObCKITNYydoJICtjVox-12">
          <mxGeometry width="50" height="50" relative="1" as="geometry">
            <mxPoint x="1350" y="625" as="sourcePoint" />
            <mxPoint x="1350" y="670" as="targetPoint" />
            <Array as="points">
              <mxPoint x="1280" y="575" />
            </Array>
          </mxGeometry>
        </mxCell>
        <mxCell id="wETEtokrw9temY9SCEjw-9" value="" style="endArrow=none;html=1;rounded=0;entryX=0;entryY=0.5;entryDx=0;entryDy=0;exitX=1;exitY=0.75;exitDx=0;exitDy=0;" edge="1" parent="1" source="CObCKITNYydoJICtjVox-9" target="CObCKITNYydoJICtjVox-14">
          <mxGeometry width="50" height="50" relative="1" as="geometry">
            <mxPoint x="1240" y="585" as="sourcePoint" />
            <mxPoint x="1350" y="670" as="targetPoint" />
            <Array as="points">
              <mxPoint x="1150" y="425" />
            </Array>
          </mxGeometry>
        </mxCell>
        <mxCell id="wETEtokrw9temY9SCEjw-10" value="" style="endArrow=none;html=1;rounded=0;entryX=0.5;entryY=0;entryDx=0;entryDy=0;exitX=0.5;exitY=1;exitDx=0;exitDy=0;" edge="1" parent="1" source="CObCKITNYydoJICtjVox-16" target="CObCKITNYydoJICtjVox-18">
          <mxGeometry width="50" height="50" relative="1" as="geometry">
            <mxPoint x="930" y="565" as="sourcePoint" />
            <mxPoint x="990" y="585" as="targetPoint" />
            <Array as="points" />
          </mxGeometry>
        </mxCell>
        <mxCell id="wETEtokrw9temY9SCEjw-11" value="" style="endArrow=none;html=1;rounded=0;entryX=1;entryY=0.5;entryDx=0;entryDy=0;exitX=0;exitY=1;exitDx=0;exitDy=0;" edge="1" parent="1" source="CObCKITNYydoJICtjVox-12" target="CObCKITNYydoJICtjVox-18">
          <mxGeometry width="50" height="50" relative="1" as="geometry">
            <mxPoint x="1050" y="615" as="sourcePoint" />
            <mxPoint x="1050" y="695" as="targetPoint" />
            <Array as="points">
              <mxPoint x="1260" y="725" />
            </Array>
          </mxGeometry>
        </mxCell>
        <mxCell id="wETEtokrw9temY9SCEjw-12" value="" style="endArrow=none;html=1;rounded=0;entryX=0;entryY=0.5;entryDx=0;entryDy=0;exitX=1;exitY=0.5;exitDx=0;exitDy=0;" edge="1" parent="1" source="CObCKITNYydoJICtjVox-25" target="CObCKITNYydoJICtjVox-26">
          <mxGeometry width="50" height="50" relative="1" as="geometry">
            <mxPoint x="1060" y="840" as="sourcePoint" />
            <mxPoint x="1050" y="695" as="targetPoint" />
            <Array as="points" />
          </mxGeometry>
        </mxCell>
        <mxCell id="wETEtokrw9temY9SCEjw-13" value="" style="endArrow=none;html=1;rounded=0;entryX=0;entryY=0.5;entryDx=0;entryDy=0;exitX=1;exitY=0.5;exitDx=0;exitDy=0;" edge="1" parent="1" source="CObCKITNYydoJICtjVox-20" target="CObCKITNYydoJICtjVox-18">
          <mxGeometry width="50" height="50" relative="1" as="geometry">
            <mxPoint x="1050" y="615" as="sourcePoint" />
            <mxPoint x="1050" y="695" as="targetPoint" />
            <Array as="points">
              <mxPoint x="760" y="725" />
            </Array>
          </mxGeometry>
        </mxCell>
        <mxCell id="wETEtokrw9temY9SCEjw-14" value="" style="endArrow=none;html=1;rounded=0;entryX=0;entryY=0.5;entryDx=0;entryDy=0;exitX=1;exitY=0.5;exitDx=0;exitDy=0;" edge="1" parent="1" source="CObCKITNYydoJICtjVox-20" target="CObCKITNYydoJICtjVox-19">
          <mxGeometry width="50" height="50" relative="1" as="geometry">
            <mxPoint x="695" y="700" as="sourcePoint" />
            <mxPoint x="1010" y="735" as="targetPoint" />
            <Array as="points">
              <mxPoint x="810" y="690" />
            </Array>
          </mxGeometry>
        </mxCell>
        <mxCell id="wETEtokrw9temY9SCEjw-16" value="POSSUI" style="rhombus;whiteSpace=wrap;html=1;" vertex="1" parent="1">
          <mxGeometry x="430" y="730" width="80" height="80" as="geometry" />
        </mxCell>
        <mxCell id="wETEtokrw9temY9SCEjw-17" value="" style="endArrow=none;html=1;rounded=0;entryX=0.5;entryY=1;entryDx=0;entryDy=0;exitX=0;exitY=0.5;exitDx=0;exitDy=0;" edge="1" parent="1" source="CObCKITNYydoJICtjVox-23" target="wETEtokrw9temY9SCEjw-16">
          <mxGeometry width="50" height="50" relative="1" as="geometry">
            <mxPoint x="560" y="870" as="sourcePoint" />
            <mxPoint x="610" y="820" as="targetPoint" />
            <Array as="points">
              <mxPoint x="470" y="840" />
            </Array>
          </mxGeometry>
        </mxCell>
        <mxCell id="wETEtokrw9temY9SCEjw-18" value="" style="endArrow=none;html=1;rounded=0;entryX=0.5;entryY=0;entryDx=0;entryDy=0;exitX=0;exitY=0.5;exitDx=0;exitDy=0;" edge="1" parent="1" source="CObCKITNYydoJICtjVox-20" target="wETEtokrw9temY9SCEjw-16">
          <mxGeometry width="50" height="50" relative="1" as="geometry">
            <mxPoint x="570" y="850" as="sourcePoint" />
            <mxPoint x="480" y="820" as="targetPoint" />
            <Array as="points">
              <mxPoint x="470" y="690" />
            </Array>
          </mxGeometry>
        </mxCell>
        <mxCell id="wETEtokrw9temY9SCEjw-19" value="" style="endArrow=none;html=1;rounded=0;entryX=0.5;entryY=0;entryDx=0;entryDy=0;exitX=0.5;exitY=1;exitDx=0;exitDy=0;" edge="1" parent="1" source="CObCKITNYydoJICtjVox-23" target="CObCKITNYydoJICtjVox-29">
          <mxGeometry width="50" height="50" relative="1" as="geometry">
            <mxPoint x="570" y="850" as="sourcePoint" />
            <mxPoint x="480" y="820" as="targetPoint" />
            <Array as="points" />
          </mxGeometry>
        </mxCell>
        <mxCell id="wETEtokrw9temY9SCEjw-20" value="" style="endArrow=none;html=1;rounded=0;entryX=0.5;entryY=0;entryDx=0;entryDy=0;" edge="1" parent="1" target="CObCKITNYydoJICtjVox-30">
          <mxGeometry width="50" height="50" relative="1" as="geometry">
            <mxPoint x="620" y="1060" as="sourcePoint" />
            <mxPoint x="630" y="990" as="targetPoint" />
            <Array as="points" />
          </mxGeometry>
        </mxCell>
      </root>
    </mxGraphModel>
  </diagram>
</mxfile>
